<mxfile host="app.diagrams.net" modified="2024-05-30T17:31:58.889Z" agent="Mozilla/5.0 (Windows NT 10.0; Win64; x64) AppleWebKit/537.36 (KHTML, like Gecko) Chrome/122.0.0.0 YaBrowser/24.4.0.0 Safari/537.36" etag="Gx5yknBTMS5_F7zLWHCK" version="24.4.10" type="github">
  <diagram name="Страница — 1" id="gb134FCB6Ntx2Ct6ADIr">
    <mxGraphModel dx="1002" dy="1629" grid="1" gridSize="10" guides="1" tooltips="1" connect="1" arrows="1" fold="1" page="1" pageScale="1" pageWidth="827" pageHeight="1169" math="0" shadow="0">
      <root>
        <mxCell id="0" />
        <mxCell id="1" parent="0" />
        <mxCell id="OmKSdJS_6-39v24Q9E5N-5" style="edgeStyle=orthogonalEdgeStyle;rounded=0;orthogonalLoop=1;jettySize=auto;html=1;entryX=0.5;entryY=0;entryDx=0;entryDy=0;" parent="1" source="zJITAl8SxJPosXwJFVy2-1" target="OmKSdJS_6-39v24Q9E5N-4" edge="1">
          <mxGeometry relative="1" as="geometry" />
        </mxCell>
        <mxCell id="zJITAl8SxJPosXwJFVy2-1" value="начало" style="rounded=1;whiteSpace=wrap;html=1;arcSize=50;" parent="1" vertex="1">
          <mxGeometry x="349.5" y="-80" width="96" height="40" as="geometry" />
        </mxCell>
        <mxCell id="OmKSdJS_6-39v24Q9E5N-7" style="edgeStyle=orthogonalEdgeStyle;rounded=0;orthogonalLoop=1;jettySize=auto;html=1;entryX=0.5;entryY=0;entryDx=0;entryDy=0;" parent="1" source="OmKSdJS_6-39v24Q9E5N-4" target="OmKSdJS_6-39v24Q9E5N-6" edge="1">
          <mxGeometry relative="1" as="geometry" />
        </mxCell>
        <mxCell id="OmKSdJS_6-39v24Q9E5N-4" value="Константы&lt;br&gt;rows=3&lt;div&gt;columns=5&lt;/div&gt;" style="rounded=0;whiteSpace=wrap;html=1;" parent="1" vertex="1">
          <mxGeometry x="337.5" y="20" width="120" height="60" as="geometry" />
        </mxCell>
        <mxCell id="OmKSdJS_6-39v24Q9E5N-9" style="edgeStyle=orthogonalEdgeStyle;rounded=0;orthogonalLoop=1;jettySize=auto;html=1;entryX=0.5;entryY=0;entryDx=0;entryDy=0;" parent="1" source="OmKSdJS_6-39v24Q9E5N-6" target="OmKSdJS_6-39v24Q9E5N-8" edge="1">
          <mxGeometry relative="1" as="geometry" />
        </mxCell>
        <mxCell id="OmKSdJS_6-39v24Q9E5N-6" value="numbers[rows][columns]&amp;nbsp;&lt;div&gt;&lt;span style=&quot;background-color: initial;&quot;&gt;{7, 1, 2,7,0},&lt;/span&gt;&lt;div&gt;&lt;div&gt;&amp;nbsp; &amp;nbsp;{ -4, -4, 6,4,5},&lt;/div&gt;&lt;div&gt;&amp;nbsp; { 5, 2,3,14, 8}&lt;/div&gt;&lt;/div&gt;&lt;/div&gt;" style="rounded=0;whiteSpace=wrap;html=1;" parent="1" vertex="1">
          <mxGeometry x="331.25" y="130" width="132.5" height="100" as="geometry" />
        </mxCell>
        <mxCell id="OmKSdJS_6-39v24Q9E5N-13" style="edgeStyle=orthogonalEdgeStyle;rounded=0;orthogonalLoop=1;jettySize=auto;html=1;entryX=0.5;entryY=0;entryDx=0;entryDy=0;" parent="1" source="OmKSdJS_6-39v24Q9E5N-8" target="OmKSdJS_6-39v24Q9E5N-12" edge="1">
          <mxGeometry relative="1" as="geometry" />
        </mxCell>
        <mxCell id="OmKSdJS_6-39v24Q9E5N-8" value="i = 0; i &amp;lt; rows - 1;" style="shape=loopLimit;whiteSpace=wrap;html=1;" parent="1" vertex="1">
          <mxGeometry x="347.5" y="280" width="100" height="80" as="geometry" />
        </mxCell>
        <mxCell id="OmKSdJS_6-39v24Q9E5N-15" style="edgeStyle=orthogonalEdgeStyle;rounded=0;orthogonalLoop=1;jettySize=auto;html=1;entryX=0.5;entryY=0;entryDx=0;entryDy=0;" parent="1" source="OmKSdJS_6-39v24Q9E5N-12" target="OmKSdJS_6-39v24Q9E5N-14" edge="1">
          <mxGeometry relative="1" as="geometry" />
        </mxCell>
        <mxCell id="OmKSdJS_6-39v24Q9E5N-12" value="j = 0; j &amp;lt; rows - i - 1;" style="shape=loopLimit;whiteSpace=wrap;html=1;" parent="1" vertex="1">
          <mxGeometry x="336.25" y="410" width="122.5" height="80" as="geometry" />
        </mxCell>
        <mxCell id="OmKSdJS_6-39v24Q9E5N-17" style="edgeStyle=orthogonalEdgeStyle;rounded=0;orthogonalLoop=1;jettySize=auto;html=1;entryX=0.5;entryY=0;entryDx=0;entryDy=0;" parent="1" source="OmKSdJS_6-39v24Q9E5N-14" target="OmKSdJS_6-39v24Q9E5N-16" edge="1">
          <mxGeometry relative="1" as="geometry" />
        </mxCell>
        <mxCell id="OmKSdJS_6-39v24Q9E5N-14" value="&lt;div&gt;freq1[columns] = { 0 };&lt;/div&gt;&lt;div&gt;&lt;span style=&quot;white-space: normal;&quot;&gt;freq2[columns] = { 0 };&lt;/span&gt;&lt;/div&gt;" style="rounded=0;whiteSpace=wrap;html=1;" parent="1" vertex="1">
          <mxGeometry x="337.5" y="530" width="120" height="60" as="geometry" />
        </mxCell>
        <mxCell id="OmKSdJS_6-39v24Q9E5N-19" style="edgeStyle=orthogonalEdgeStyle;rounded=0;orthogonalLoop=1;jettySize=auto;html=1;entryX=0.5;entryY=0;entryDx=0;entryDy=0;" parent="1" source="OmKSdJS_6-39v24Q9E5N-16" target="OmKSdJS_6-39v24Q9E5N-18" edge="1">
          <mxGeometry relative="1" as="geometry" />
        </mxCell>
        <mxCell id="OmKSdJS_6-39v24Q9E5N-16" value="maxCount1 = 0, maxCount2 = 0;" style="rounded=0;whiteSpace=wrap;html=1;" parent="1" vertex="1">
          <mxGeometry x="337.5" y="630" width="120" height="60" as="geometry" />
        </mxCell>
        <mxCell id="OmKSdJS_6-39v24Q9E5N-21" style="edgeStyle=orthogonalEdgeStyle;rounded=0;orthogonalLoop=1;jettySize=auto;html=1;entryX=0.5;entryY=0;entryDx=0;entryDy=0;" parent="1" source="OmKSdJS_6-39v24Q9E5N-18" target="OmKSdJS_6-39v24Q9E5N-20" edge="1">
          <mxGeometry relative="1" as="geometry" />
        </mxCell>
        <mxCell id="OmKSdJS_6-39v24Q9E5N-18" value="k = 0; k &amp;lt; columns;" style="shape=loopLimit;whiteSpace=wrap;html=1;" parent="1" vertex="1">
          <mxGeometry x="336.25" y="720" width="122.5" height="80" as="geometry" />
        </mxCell>
        <mxCell id="OmKSdJS_6-39v24Q9E5N-148" style="edgeStyle=orthogonalEdgeStyle;rounded=0;orthogonalLoop=1;jettySize=auto;html=1;entryX=0.5;entryY=0;entryDx=0;entryDy=0;" parent="1" source="OmKSdJS_6-39v24Q9E5N-20" target="OmKSdJS_6-39v24Q9E5N-147" edge="1">
          <mxGeometry relative="1" as="geometry" />
        </mxCell>
        <mxCell id="OmKSdJS_6-39v24Q9E5N-20" value="count1 = 0,&amp;nbsp;&lt;div&gt;count2 = 0;&lt;/div&gt;" style="rounded=0;whiteSpace=wrap;html=1;" parent="1" vertex="1">
          <mxGeometry x="337.5" y="840" width="120" height="60" as="geometry" />
        </mxCell>
        <mxCell id="OmKSdJS_6-39v24Q9E5N-25" style="edgeStyle=orthogonalEdgeStyle;rounded=0;orthogonalLoop=1;jettySize=auto;html=1;entryX=0.5;entryY=0;entryDx=0;entryDy=0;" parent="1" source="OmKSdJS_6-39v24Q9E5N-22" target="OmKSdJS_6-39v24Q9E5N-24" edge="1">
          <mxGeometry relative="1" as="geometry" />
        </mxCell>
        <mxCell id="OmKSdJS_6-39v24Q9E5N-22" value="l = 0; l &amp;lt; columns;" style="shape=loopLimit;whiteSpace=wrap;html=1;" parent="1" vertex="1">
          <mxGeometry x="591.25" y="40" width="122.5" height="80" as="geometry" />
        </mxCell>
        <mxCell id="OmKSdJS_6-39v24Q9E5N-27" style="edgeStyle=orthogonalEdgeStyle;rounded=0;orthogonalLoop=1;jettySize=auto;html=1;entryX=0.5;entryY=0;entryDx=0;entryDy=0;" parent="1" source="OmKSdJS_6-39v24Q9E5N-24" target="OmKSdJS_6-39v24Q9E5N-26" edge="1">
          <mxGeometry relative="1" as="geometry" />
        </mxCell>
        <mxCell id="OmKSdJS_6-39v24Q9E5N-28" value="Да" style="edgeLabel;html=1;align=center;verticalAlign=middle;resizable=0;points=[];" parent="OmKSdJS_6-39v24Q9E5N-27" vertex="1" connectable="0">
          <mxGeometry x="-0.4513" y="1" relative="1" as="geometry">
            <mxPoint as="offset" />
          </mxGeometry>
        </mxCell>
        <mxCell id="OmKSdJS_6-39v24Q9E5N-31" style="edgeStyle=orthogonalEdgeStyle;rounded=0;orthogonalLoop=1;jettySize=auto;html=1;entryX=0.5;entryY=0;entryDx=0;entryDy=0;exitX=0;exitY=0.5;exitDx=0;exitDy=0;" parent="1" source="OmKSdJS_6-39v24Q9E5N-24" target="OmKSdJS_6-39v24Q9E5N-29" edge="1">
          <mxGeometry relative="1" as="geometry">
            <Array as="points">
              <mxPoint x="541" y="225" />
              <mxPoint x="541" y="380" />
              <mxPoint x="654" y="380" />
            </Array>
          </mxGeometry>
        </mxCell>
        <mxCell id="OmKSdJS_6-39v24Q9E5N-32" value="Нет" style="edgeLabel;html=1;align=center;verticalAlign=middle;resizable=0;points=[];" parent="OmKSdJS_6-39v24Q9E5N-31" vertex="1" connectable="0">
          <mxGeometry x="-0.9544" y="-1" relative="1" as="geometry">
            <mxPoint as="offset" />
          </mxGeometry>
        </mxCell>
        <mxCell id="OmKSdJS_6-39v24Q9E5N-24" value="numbers[j][k] == numbers[j][l]" style="rhombus;whiteSpace=wrap;html=1;" parent="1" vertex="1">
          <mxGeometry x="561.25" y="170" width="182.5" height="110" as="geometry" />
        </mxCell>
        <mxCell id="OmKSdJS_6-39v24Q9E5N-30" style="edgeStyle=orthogonalEdgeStyle;rounded=0;orthogonalLoop=1;jettySize=auto;html=1;entryX=0.5;entryY=0;entryDx=0;entryDy=0;" parent="1" source="OmKSdJS_6-39v24Q9E5N-26" target="OmKSdJS_6-39v24Q9E5N-29" edge="1">
          <mxGeometry relative="1" as="geometry" />
        </mxCell>
        <mxCell id="OmKSdJS_6-39v24Q9E5N-26" value="count1++" style="rounded=0;whiteSpace=wrap;html=1;" parent="1" vertex="1">
          <mxGeometry x="775" y="290" width="120" height="60" as="geometry" />
        </mxCell>
        <mxCell id="OmKSdJS_6-39v24Q9E5N-34" style="edgeStyle=orthogonalEdgeStyle;rounded=0;orthogonalLoop=1;jettySize=auto;html=1;entryX=0.5;entryY=0;entryDx=0;entryDy=0;" parent="1" source="OmKSdJS_6-39v24Q9E5N-29" target="OmKSdJS_6-39v24Q9E5N-33" edge="1">
          <mxGeometry relative="1" as="geometry" />
        </mxCell>
        <mxCell id="OmKSdJS_6-39v24Q9E5N-39" value="Да" style="edgeLabel;html=1;align=center;verticalAlign=middle;resizable=0;points=[];" parent="OmKSdJS_6-39v24Q9E5N-34" vertex="1" connectable="0">
          <mxGeometry x="-0.6737" y="5" relative="1" as="geometry">
            <mxPoint as="offset" />
          </mxGeometry>
        </mxCell>
        <mxCell id="OmKSdJS_6-39v24Q9E5N-42" style="edgeStyle=orthogonalEdgeStyle;rounded=0;orthogonalLoop=1;jettySize=auto;html=1;entryX=0.5;entryY=1;entryDx=0;entryDy=0;exitX=0;exitY=0.5;exitDx=0;exitDy=0;" parent="1" source="OmKSdJS_6-39v24Q9E5N-29" target="OmKSdJS_6-39v24Q9E5N-35" edge="1">
          <mxGeometry relative="1" as="geometry">
            <Array as="points">
              <mxPoint x="512" y="490" />
              <mxPoint x="512" y="660" />
              <mxPoint x="652" y="660" />
            </Array>
          </mxGeometry>
        </mxCell>
        <mxCell id="OmKSdJS_6-39v24Q9E5N-43" value="Нет" style="edgeLabel;html=1;align=center;verticalAlign=middle;resizable=0;points=[];" parent="OmKSdJS_6-39v24Q9E5N-42" vertex="1" connectable="0">
          <mxGeometry x="-0.9595" relative="1" as="geometry">
            <mxPoint as="offset" />
          </mxGeometry>
        </mxCell>
        <mxCell id="OmKSdJS_6-39v24Q9E5N-29" value="numbers[j + 1][k] == numbers[j + 1][l]" style="rhombus;whiteSpace=wrap;html=1;" parent="1" vertex="1">
          <mxGeometry x="532.5" y="420" width="242.5" height="140" as="geometry" />
        </mxCell>
        <mxCell id="OmKSdJS_6-39v24Q9E5N-40" style="edgeStyle=orthogonalEdgeStyle;rounded=0;orthogonalLoop=1;jettySize=auto;html=1;entryX=0.5;entryY=1;entryDx=0;entryDy=0;exitX=0.5;exitY=1;exitDx=0;exitDy=0;" parent="1" source="OmKSdJS_6-39v24Q9E5N-33" target="OmKSdJS_6-39v24Q9E5N-35" edge="1">
          <mxGeometry relative="1" as="geometry" />
        </mxCell>
        <mxCell id="OmKSdJS_6-39v24Q9E5N-33" value="count2" style="rounded=0;whiteSpace=wrap;html=1;" parent="1" vertex="1">
          <mxGeometry x="785" y="570" width="120" height="60" as="geometry" />
        </mxCell>
        <mxCell id="OmKSdJS_6-39v24Q9E5N-45" style="edgeStyle=orthogonalEdgeStyle;rounded=0;orthogonalLoop=1;jettySize=auto;html=1;entryX=0.5;entryY=0;entryDx=0;entryDy=0;" parent="1" source="OmKSdJS_6-39v24Q9E5N-35" target="OmKSdJS_6-39v24Q9E5N-44" edge="1">
          <mxGeometry relative="1" as="geometry" />
        </mxCell>
        <mxCell id="OmKSdJS_6-39v24Q9E5N-35" value="" style="shape=loopLimit;whiteSpace=wrap;html=1;rotation=-180;" parent="1" vertex="1">
          <mxGeometry x="591.25" y="690" width="122.5" height="80" as="geometry" />
        </mxCell>
        <mxCell id="OmKSdJS_6-39v24Q9E5N-36" value="++l" style="text;html=1;align=center;verticalAlign=middle;resizable=0;points=[];autosize=1;strokeColor=none;fillColor=none;" parent="1" vertex="1">
          <mxGeometry x="632.5" y="708" width="40" height="30" as="geometry" />
        </mxCell>
        <mxCell id="OmKSdJS_6-39v24Q9E5N-47" style="edgeStyle=orthogonalEdgeStyle;rounded=0;orthogonalLoop=1;jettySize=auto;html=1;entryX=0.5;entryY=0;entryDx=0;entryDy=0;" parent="1" source="OmKSdJS_6-39v24Q9E5N-44" target="OmKSdJS_6-39v24Q9E5N-46" edge="1">
          <mxGeometry relative="1" as="geometry" />
        </mxCell>
        <mxCell id="OmKSdJS_6-39v24Q9E5N-54" value="Да" style="edgeLabel;html=1;align=center;verticalAlign=middle;resizable=0;points=[];" parent="OmKSdJS_6-39v24Q9E5N-47" vertex="1" connectable="0">
          <mxGeometry x="-0.5351" y="2" relative="1" as="geometry">
            <mxPoint as="offset" />
          </mxGeometry>
        </mxCell>
        <mxCell id="OmKSdJS_6-39v24Q9E5N-53" style="edgeStyle=orthogonalEdgeStyle;rounded=0;orthogonalLoop=1;jettySize=auto;html=1;entryX=0.5;entryY=0;entryDx=0;entryDy=0;exitX=0;exitY=0.5;exitDx=0;exitDy=0;" parent="1" source="OmKSdJS_6-39v24Q9E5N-44" target="OmKSdJS_6-39v24Q9E5N-48" edge="1">
          <mxGeometry relative="1" as="geometry">
            <Array as="points">
              <mxPoint x="568" y="870" />
              <mxPoint x="568" y="980" />
              <mxPoint x="654" y="980" />
            </Array>
          </mxGeometry>
        </mxCell>
        <mxCell id="OmKSdJS_6-39v24Q9E5N-55" value="нет" style="edgeLabel;html=1;align=center;verticalAlign=middle;resizable=0;points=[];" parent="OmKSdJS_6-39v24Q9E5N-53" vertex="1" connectable="0">
          <mxGeometry x="-0.9064" y="-3" relative="1" as="geometry">
            <mxPoint as="offset" />
          </mxGeometry>
        </mxCell>
        <mxCell id="OmKSdJS_6-39v24Q9E5N-44" value="count1 &amp;gt; maxCount1" style="rhombus;whiteSpace=wrap;html=1;" parent="1" vertex="1">
          <mxGeometry x="588.13" y="820" width="131.25" height="100" as="geometry" />
        </mxCell>
        <mxCell id="OmKSdJS_6-39v24Q9E5N-52" style="edgeStyle=orthogonalEdgeStyle;rounded=0;orthogonalLoop=1;jettySize=auto;html=1;entryX=0.5;entryY=0;entryDx=0;entryDy=0;exitX=0.5;exitY=1;exitDx=0;exitDy=0;" parent="1" source="OmKSdJS_6-39v24Q9E5N-46" target="OmKSdJS_6-39v24Q9E5N-48" edge="1">
          <mxGeometry relative="1" as="geometry" />
        </mxCell>
        <mxCell id="OmKSdJS_6-39v24Q9E5N-46" value="maxCount1 = count1" style="rounded=0;whiteSpace=wrap;html=1;" parent="1" vertex="1">
          <mxGeometry x="775" y="890" width="120" height="60" as="geometry" />
        </mxCell>
        <mxCell id="OmKSdJS_6-39v24Q9E5N-50" style="edgeStyle=orthogonalEdgeStyle;rounded=0;orthogonalLoop=1;jettySize=auto;html=1;entryX=0.5;entryY=0;entryDx=0;entryDy=0;" parent="1" source="OmKSdJS_6-39v24Q9E5N-48" target="OmKSdJS_6-39v24Q9E5N-49" edge="1">
          <mxGeometry relative="1" as="geometry" />
        </mxCell>
        <mxCell id="OmKSdJS_6-39v24Q9E5N-60" value="Да" style="edgeLabel;html=1;align=center;verticalAlign=middle;resizable=0;points=[];" parent="OmKSdJS_6-39v24Q9E5N-50" vertex="1" connectable="0">
          <mxGeometry x="-0.5814" y="-3" relative="1" as="geometry">
            <mxPoint as="offset" />
          </mxGeometry>
        </mxCell>
        <mxCell id="OmKSdJS_6-39v24Q9E5N-59" style="edgeStyle=orthogonalEdgeStyle;rounded=0;orthogonalLoop=1;jettySize=auto;html=1;entryX=0.5;entryY=1;entryDx=0;entryDy=0;exitX=0;exitY=0.5;exitDx=0;exitDy=0;" parent="1" source="OmKSdJS_6-39v24Q9E5N-48" target="OmKSdJS_6-39v24Q9E5N-56" edge="1">
          <mxGeometry relative="1" as="geometry">
            <Array as="points">
              <mxPoint x="555" y="1055" />
              <mxPoint x="555" y="1180" />
              <mxPoint x="652" y="1180" />
            </Array>
          </mxGeometry>
        </mxCell>
        <mxCell id="OmKSdJS_6-39v24Q9E5N-61" value="Нет" style="edgeLabel;html=1;align=center;verticalAlign=middle;resizable=0;points=[];" parent="OmKSdJS_6-39v24Q9E5N-59" vertex="1" connectable="0">
          <mxGeometry x="-0.8593" y="4" relative="1" as="geometry">
            <mxPoint as="offset" />
          </mxGeometry>
        </mxCell>
        <mxCell id="OmKSdJS_6-39v24Q9E5N-48" value="count2 &amp;gt; maxCount2" style="rhombus;whiteSpace=wrap;html=1;" parent="1" vertex="1">
          <mxGeometry x="588.13" y="1010" width="131.25" height="90" as="geometry" />
        </mxCell>
        <mxCell id="OmKSdJS_6-39v24Q9E5N-58" style="edgeStyle=orthogonalEdgeStyle;rounded=0;orthogonalLoop=1;jettySize=auto;html=1;entryX=0.5;entryY=1;entryDx=0;entryDy=0;exitX=0.5;exitY=1;exitDx=0;exitDy=0;" parent="1" source="OmKSdJS_6-39v24Q9E5N-49" target="OmKSdJS_6-39v24Q9E5N-56" edge="1">
          <mxGeometry relative="1" as="geometry" />
        </mxCell>
        <mxCell id="OmKSdJS_6-39v24Q9E5N-49" value="maxCount2 = count2" style="rounded=0;whiteSpace=wrap;html=1;" parent="1" vertex="1">
          <mxGeometry x="775" y="1090" width="120" height="60" as="geometry" />
        </mxCell>
        <mxCell id="OmKSdJS_6-39v24Q9E5N-63" style="edgeStyle=orthogonalEdgeStyle;rounded=0;orthogonalLoop=1;jettySize=auto;html=1;entryX=0.5;entryY=0;entryDx=0;entryDy=0;" parent="1" target="OmKSdJS_6-39v24Q9E5N-62" edge="1">
          <mxGeometry relative="1" as="geometry">
            <mxPoint x="1045.622494061758" y="60" as="sourcePoint" />
          </mxGeometry>
        </mxCell>
        <mxCell id="OmKSdJS_6-39v24Q9E5N-56" value="" style="shape=loopLimit;whiteSpace=wrap;html=1;rotation=-180;" parent="1" vertex="1">
          <mxGeometry x="591.25" y="1210" width="122.5" height="80" as="geometry" />
        </mxCell>
        <mxCell id="OmKSdJS_6-39v24Q9E5N-152" style="edgeStyle=orthogonalEdgeStyle;rounded=0;orthogonalLoop=1;jettySize=auto;html=1;entryX=0.5;entryY=0;entryDx=0;entryDy=0;" parent="1" source="OmKSdJS_6-39v24Q9E5N-57" target="OmKSdJS_6-39v24Q9E5N-151" edge="1">
          <mxGeometry relative="1" as="geometry" />
        </mxCell>
        <mxCell id="OmKSdJS_6-39v24Q9E5N-57" value="++k" style="text;html=1;align=center;verticalAlign=middle;resizable=0;points=[];autosize=1;strokeColor=none;fillColor=none;" parent="1" vertex="1">
          <mxGeometry x="632.5" y="1235" width="40" height="30" as="geometry" />
        </mxCell>
        <mxCell id="OmKSdJS_6-39v24Q9E5N-65" style="edgeStyle=orthogonalEdgeStyle;rounded=0;orthogonalLoop=1;jettySize=auto;html=1;entryX=0.5;entryY=0;entryDx=0;entryDy=0;" parent="1" source="OmKSdJS_6-39v24Q9E5N-62" target="OmKSdJS_6-39v24Q9E5N-64" edge="1">
          <mxGeometry relative="1" as="geometry" />
        </mxCell>
        <mxCell id="OmKSdJS_6-39v24Q9E5N-68" style="edgeStyle=orthogonalEdgeStyle;rounded=0;orthogonalLoop=1;jettySize=auto;html=1;entryX=0.5;entryY=1;entryDx=0;entryDy=0;exitX=0;exitY=0.5;exitDx=0;exitDy=0;" parent="1" source="OmKSdJS_6-39v24Q9E5N-62" target="OmKSdJS_6-39v24Q9E5N-66" edge="1">
          <mxGeometry relative="1" as="geometry">
            <Array as="points">
              <mxPoint x="941.17" y="145" />
              <mxPoint x="941.17" y="280" />
              <mxPoint x="1059.17" y="280" />
            </Array>
          </mxGeometry>
        </mxCell>
        <mxCell id="OmKSdJS_6-39v24Q9E5N-62" value="maxCount1 &amp;gt; maxCount2" style="rhombus;whiteSpace=wrap;html=1;" parent="1" vertex="1">
          <mxGeometry x="960.68" y="100" width="172.5" height="90" as="geometry" />
        </mxCell>
        <mxCell id="OmKSdJS_6-39v24Q9E5N-71" style="edgeStyle=orthogonalEdgeStyle;rounded=0;orthogonalLoop=1;jettySize=auto;html=1;entryX=0.5;entryY=0;entryDx=0;entryDy=0;" parent="1" source="OmKSdJS_6-39v24Q9E5N-64" target="OmKSdJS_6-39v24Q9E5N-70" edge="1">
          <mxGeometry relative="1" as="geometry" />
        </mxCell>
        <mxCell id="OmKSdJS_6-39v24Q9E5N-64" value="k = 0; k &amp;lt; columns;" style="shape=loopLimit;whiteSpace=wrap;html=1;rotation=0;" parent="1" vertex="1">
          <mxGeometry x="1165.67" y="220" width="122.5" height="80" as="geometry" />
        </mxCell>
        <mxCell id="OmKSdJS_6-39v24Q9E5N-82" style="edgeStyle=orthogonalEdgeStyle;rounded=0;orthogonalLoop=1;jettySize=auto;html=1;entryX=0.5;entryY=1;entryDx=0;entryDy=0;" parent="1" source="OmKSdJS_6-39v24Q9E5N-66" target="OmKSdJS_6-39v24Q9E5N-80" edge="1">
          <mxGeometry relative="1" as="geometry" />
        </mxCell>
        <mxCell id="OmKSdJS_6-39v24Q9E5N-66" value="" style="shape=loopLimit;whiteSpace=wrap;html=1;rotation=-180;" parent="1" vertex="1">
          <mxGeometry x="997.67" y="760" width="122.5" height="80" as="geometry" />
        </mxCell>
        <mxCell id="OmKSdJS_6-39v24Q9E5N-67" value="++j" style="text;html=1;align=center;verticalAlign=middle;resizable=0;points=[];autosize=1;strokeColor=none;fillColor=none;" parent="1" vertex="1">
          <mxGeometry x="1038.92" y="785" width="40" height="30" as="geometry" />
        </mxCell>
        <mxCell id="OmKSdJS_6-39v24Q9E5N-69" value="" style="shape=loopLimit;whiteSpace=wrap;html=1;rotation=-180;" parent="1" vertex="1">
          <mxGeometry x="1168.17" y="630" width="122.5" height="80" as="geometry" />
        </mxCell>
        <mxCell id="OmKSdJS_6-39v24Q9E5N-73" style="edgeStyle=orthogonalEdgeStyle;rounded=0;orthogonalLoop=1;jettySize=auto;html=1;entryX=0.5;entryY=0;entryDx=0;entryDy=0;" parent="1" source="OmKSdJS_6-39v24Q9E5N-70" target="OmKSdJS_6-39v24Q9E5N-72" edge="1">
          <mxGeometry relative="1" as="geometry" />
        </mxCell>
        <mxCell id="OmKSdJS_6-39v24Q9E5N-70" value="temp = numbers[j][k]" style="rounded=0;whiteSpace=wrap;html=1;" parent="1" vertex="1">
          <mxGeometry x="1166.92" y="350" width="120" height="60" as="geometry" />
        </mxCell>
        <mxCell id="OmKSdJS_6-39v24Q9E5N-75" style="edgeStyle=orthogonalEdgeStyle;rounded=0;orthogonalLoop=1;jettySize=auto;html=1;entryX=0.5;entryY=0;entryDx=0;entryDy=0;" parent="1" source="OmKSdJS_6-39v24Q9E5N-72" target="OmKSdJS_6-39v24Q9E5N-74" edge="1">
          <mxGeometry relative="1" as="geometry" />
        </mxCell>
        <mxCell id="OmKSdJS_6-39v24Q9E5N-72" value="numbers[j][k] = numbers[j + 1][k];" style="rounded=0;whiteSpace=wrap;html=1;" parent="1" vertex="1">
          <mxGeometry x="1111.92" y="450" width="230" height="60" as="geometry" />
        </mxCell>
        <mxCell id="OmKSdJS_6-39v24Q9E5N-77" style="edgeStyle=orthogonalEdgeStyle;rounded=0;orthogonalLoop=1;jettySize=auto;html=1;entryX=0.5;entryY=1;entryDx=0;entryDy=0;" parent="1" source="OmKSdJS_6-39v24Q9E5N-74" target="OmKSdJS_6-39v24Q9E5N-69" edge="1">
          <mxGeometry relative="1" as="geometry" />
        </mxCell>
        <mxCell id="OmKSdJS_6-39v24Q9E5N-74" value="numbers[j + 1][k] = temp;" style="rounded=0;whiteSpace=wrap;html=1;" parent="1" vertex="1">
          <mxGeometry x="1138.17" y="540" width="180" height="60" as="geometry" />
        </mxCell>
        <mxCell id="OmKSdJS_6-39v24Q9E5N-79" style="edgeStyle=orthogonalEdgeStyle;rounded=0;orthogonalLoop=1;jettySize=auto;html=1;entryX=0.5;entryY=1;entryDx=0;entryDy=0;exitX=0.5;exitY=0;exitDx=0;exitDy=0;" parent="1" source="OmKSdJS_6-39v24Q9E5N-69" target="OmKSdJS_6-39v24Q9E5N-66" edge="1">
          <mxGeometry relative="1" as="geometry" />
        </mxCell>
        <mxCell id="OmKSdJS_6-39v24Q9E5N-76" value="++k" style="text;html=1;align=center;verticalAlign=middle;resizable=0;points=[];autosize=1;strokeColor=none;fillColor=none;" parent="1" vertex="1">
          <mxGeometry x="1208.17" y="655" width="40" height="30" as="geometry" />
        </mxCell>
        <mxCell id="OmKSdJS_6-39v24Q9E5N-80" value="" style="shape=loopLimit;whiteSpace=wrap;html=1;rotation=-180;" parent="1" vertex="1">
          <mxGeometry x="1008.92" y="880" width="100" height="80" as="geometry" />
        </mxCell>
        <mxCell id="OmKSdJS_6-39v24Q9E5N-158" style="edgeStyle=orthogonalEdgeStyle;rounded=0;orthogonalLoop=1;jettySize=auto;html=1;entryX=0.5;entryY=0;entryDx=0;entryDy=0;" parent="1" source="OmKSdJS_6-39v24Q9E5N-81" target="OmKSdJS_6-39v24Q9E5N-157" edge="1">
          <mxGeometry relative="1" as="geometry" />
        </mxCell>
        <mxCell id="OmKSdJS_6-39v24Q9E5N-81" value="++i" style="text;html=1;align=center;verticalAlign=middle;resizable=0;points=[];autosize=1;strokeColor=none;fillColor=none;" parent="1" vertex="1">
          <mxGeometry x="1042.17" y="905" width="40" height="30" as="geometry" />
        </mxCell>
        <mxCell id="OmKSdJS_6-39v24Q9E5N-86" style="edgeStyle=orthogonalEdgeStyle;rounded=0;orthogonalLoop=1;jettySize=auto;html=1;entryX=0.5;entryY=0;entryDx=0;entryDy=0;" parent="1" source="OmKSdJS_6-39v24Q9E5N-83" target="OmKSdJS_6-39v24Q9E5N-85" edge="1">
          <mxGeometry relative="1" as="geometry" />
        </mxCell>
        <mxCell id="OmKSdJS_6-39v24Q9E5N-83" value="i = 0; i &amp;lt; rows;" style="shape=loopLimit;whiteSpace=wrap;html=1;rotation=0;" parent="1" vertex="1">
          <mxGeometry x="1438.6299999999999" y="60" width="100" height="80" as="geometry" />
        </mxCell>
        <mxCell id="OmKSdJS_6-39v24Q9E5N-89" style="edgeStyle=orthogonalEdgeStyle;rounded=0;orthogonalLoop=1;jettySize=auto;html=1;entryX=0.5;entryY=0;entryDx=0;entryDy=0;" parent="1" source="OmKSdJS_6-39v24Q9E5N-85" target="OmKSdJS_6-39v24Q9E5N-88" edge="1">
          <mxGeometry relative="1" as="geometry" />
        </mxCell>
        <mxCell id="OmKSdJS_6-39v24Q9E5N-85" value="j = 0; j &amp;lt; columns;" style="shape=loopLimit;whiteSpace=wrap;html=1;rotation=0;" parent="1" vertex="1">
          <mxGeometry x="1438.6299999999999" y="180" width="100" height="80" as="geometry" />
        </mxCell>
        <mxCell id="OmKSdJS_6-39v24Q9E5N-95" style="edgeStyle=orthogonalEdgeStyle;rounded=0;orthogonalLoop=1;jettySize=auto;html=1;entryX=0.5;entryY=1;entryDx=0;entryDy=0;" parent="1" source="OmKSdJS_6-39v24Q9E5N-88" target="OmKSdJS_6-39v24Q9E5N-90" edge="1">
          <mxGeometry relative="1" as="geometry" />
        </mxCell>
        <mxCell id="OmKSdJS_6-39v24Q9E5N-88" value="Вывод&lt;br&gt;numbers[i][j]" style="shape=parallelogram;perimeter=parallelogramPerimeter;whiteSpace=wrap;html=1;fixedSize=1;" parent="1" vertex="1">
          <mxGeometry x="1428.6299999999999" y="300" width="120" height="60" as="geometry" />
        </mxCell>
        <mxCell id="OmKSdJS_6-39v24Q9E5N-94" style="edgeStyle=orthogonalEdgeStyle;rounded=0;orthogonalLoop=1;jettySize=auto;html=1;entryX=0.5;entryY=1;entryDx=0;entryDy=0;" parent="1" source="OmKSdJS_6-39v24Q9E5N-90" target="OmKSdJS_6-39v24Q9E5N-92" edge="1">
          <mxGeometry relative="1" as="geometry" />
        </mxCell>
        <mxCell id="OmKSdJS_6-39v24Q9E5N-90" value="" style="shape=loopLimit;whiteSpace=wrap;html=1;rotation=-180;" parent="1" vertex="1">
          <mxGeometry x="1438.6299999999999" y="390" width="100" height="80" as="geometry" />
        </mxCell>
        <mxCell id="OmKSdJS_6-39v24Q9E5N-91" value="++j" style="text;html=1;align=center;verticalAlign=middle;resizable=0;points=[];autosize=1;strokeColor=none;fillColor=none;" parent="1" vertex="1">
          <mxGeometry x="1468.63" y="415" width="40" height="30" as="geometry" />
        </mxCell>
        <mxCell id="OmKSdJS_6-39v24Q9E5N-165" style="edgeStyle=orthogonalEdgeStyle;rounded=0;orthogonalLoop=1;jettySize=auto;html=1;entryX=0.5;entryY=0;entryDx=0;entryDy=0;" parent="1" source="OmKSdJS_6-39v24Q9E5N-92" target="OmKSdJS_6-39v24Q9E5N-164" edge="1">
          <mxGeometry relative="1" as="geometry" />
        </mxCell>
        <mxCell id="OmKSdJS_6-39v24Q9E5N-92" value="" style="shape=loopLimit;whiteSpace=wrap;html=1;rotation=-180;" parent="1" vertex="1">
          <mxGeometry x="1438.6299999999999" y="510" width="100" height="80" as="geometry" />
        </mxCell>
        <mxCell id="OmKSdJS_6-39v24Q9E5N-93" value="++i" style="text;html=1;align=center;verticalAlign=middle;resizable=0;points=[];autosize=1;strokeColor=none;fillColor=none;" parent="1" vertex="1">
          <mxGeometry x="1471.88" y="530" width="40" height="30" as="geometry" />
        </mxCell>
        <mxCell id="OmKSdJS_6-39v24Q9E5N-99" style="edgeStyle=orthogonalEdgeStyle;rounded=0;orthogonalLoop=1;jettySize=auto;html=1;entryX=0.5;entryY=0;entryDx=0;entryDy=0;" parent="1" source="OmKSdJS_6-39v24Q9E5N-96" target="OmKSdJS_6-39v24Q9E5N-98" edge="1">
          <mxGeometry relative="1" as="geometry" />
        </mxCell>
        <mxCell id="OmKSdJS_6-39v24Q9E5N-96" value="indexcolum = -1" style="rounded=0;whiteSpace=wrap;html=1;" parent="1" vertex="1">
          <mxGeometry x="1700.77" y="50" width="120" height="60" as="geometry" />
        </mxCell>
        <mxCell id="OmKSdJS_6-39v24Q9E5N-101" style="edgeStyle=orthogonalEdgeStyle;rounded=0;orthogonalLoop=1;jettySize=auto;html=1;entryX=0.5;entryY=0;entryDx=0;entryDy=0;" parent="1" source="OmKSdJS_6-39v24Q9E5N-98" target="OmKSdJS_6-39v24Q9E5N-100" edge="1">
          <mxGeometry relative="1" as="geometry" />
        </mxCell>
        <mxCell id="OmKSdJS_6-39v24Q9E5N-98" value="j = 0; j &amp;lt; columns" style="shape=loopLimit;whiteSpace=wrap;html=1;rotation=0;" parent="1" vertex="1">
          <mxGeometry x="1710.77" y="150" width="100" height="80" as="geometry" />
        </mxCell>
        <mxCell id="OmKSdJS_6-39v24Q9E5N-104" style="edgeStyle=orthogonalEdgeStyle;rounded=0;orthogonalLoop=1;jettySize=auto;html=1;entryX=0.5;entryY=0;entryDx=0;entryDy=0;" parent="1" source="OmKSdJS_6-39v24Q9E5N-100" target="OmKSdJS_6-39v24Q9E5N-102" edge="1">
          <mxGeometry relative="1" as="geometry" />
        </mxCell>
        <mxCell id="OmKSdJS_6-39v24Q9E5N-100" value="allNonNegative = false" style="rounded=0;whiteSpace=wrap;html=1;" parent="1" vertex="1">
          <mxGeometry x="1690.52" y="270" width="140.5" height="60" as="geometry" />
        </mxCell>
        <mxCell id="OmKSdJS_6-39v24Q9E5N-105" style="edgeStyle=orthogonalEdgeStyle;rounded=0;orthogonalLoop=1;jettySize=auto;html=1;entryX=0.5;entryY=0;entryDx=0;entryDy=0;" parent="1" source="OmKSdJS_6-39v24Q9E5N-102" target="OmKSdJS_6-39v24Q9E5N-103" edge="1">
          <mxGeometry relative="1" as="geometry" />
        </mxCell>
        <mxCell id="OmKSdJS_6-39v24Q9E5N-102" value="i = 0; i &amp;lt; rows" style="shape=loopLimit;whiteSpace=wrap;html=1;rotation=0;" parent="1" vertex="1">
          <mxGeometry x="1710.77" y="370" width="100" height="80" as="geometry" />
        </mxCell>
        <mxCell id="OmKSdJS_6-39v24Q9E5N-107" style="edgeStyle=orthogonalEdgeStyle;rounded=0;orthogonalLoop=1;jettySize=auto;html=1;entryX=0.5;entryY=0;entryDx=0;entryDy=0;" parent="1" source="OmKSdJS_6-39v24Q9E5N-103" target="OmKSdJS_6-39v24Q9E5N-106" edge="1">
          <mxGeometry relative="1" as="geometry" />
        </mxCell>
        <mxCell id="OmKSdJS_6-39v24Q9E5N-111" style="edgeStyle=orthogonalEdgeStyle;rounded=0;orthogonalLoop=1;jettySize=auto;html=1;entryX=0.5;entryY=1;entryDx=0;entryDy=0;exitX=0;exitY=0.5;exitDx=0;exitDy=0;" parent="1" source="OmKSdJS_6-39v24Q9E5N-103" target="OmKSdJS_6-39v24Q9E5N-108" edge="1">
          <mxGeometry relative="1" as="geometry">
            <Array as="points">
              <mxPoint x="1670.02" y="535" />
              <mxPoint x="1670.02" y="640" />
              <mxPoint x="1761.02" y="640" />
            </Array>
          </mxGeometry>
        </mxCell>
        <mxCell id="OmKSdJS_6-39v24Q9E5N-103" value="numbers[i][j] &amp;lt; 0" style="rhombus;whiteSpace=wrap;html=1;" parent="1" vertex="1">
          <mxGeometry x="1701.52" y="490" width="119.25" height="90" as="geometry" />
        </mxCell>
        <mxCell id="OmKSdJS_6-39v24Q9E5N-143" style="edgeStyle=orthogonalEdgeStyle;rounded=0;orthogonalLoop=1;jettySize=auto;html=1;entryX=0.5;entryY=0;entryDx=0;entryDy=0;" parent="1" source="OmKSdJS_6-39v24Q9E5N-106" target="OmKSdJS_6-39v24Q9E5N-142" edge="1">
          <mxGeometry relative="1" as="geometry" />
        </mxCell>
        <mxCell id="OmKSdJS_6-39v24Q9E5N-106" value="allNonNegative = true" style="rounded=0;whiteSpace=wrap;html=1;" parent="1" vertex="1">
          <mxGeometry x="1872.52" y="560" width="120" height="60" as="geometry" />
        </mxCell>
        <mxCell id="OmKSdJS_6-39v24Q9E5N-113" style="edgeStyle=orthogonalEdgeStyle;rounded=0;orthogonalLoop=1;jettySize=auto;html=1;entryX=0.5;entryY=0;entryDx=0;entryDy=0;" parent="1" source="OmKSdJS_6-39v24Q9E5N-108" target="OmKSdJS_6-39v24Q9E5N-112" edge="1">
          <mxGeometry relative="1" as="geometry" />
        </mxCell>
        <mxCell id="OmKSdJS_6-39v24Q9E5N-108" value="" style="shape=loopLimit;whiteSpace=wrap;html=1;rotation=-180;" parent="1" vertex="1">
          <mxGeometry x="1710.77" y="660" width="100" height="80" as="geometry" />
        </mxCell>
        <mxCell id="OmKSdJS_6-39v24Q9E5N-109" value="++i" style="text;html=1;align=center;verticalAlign=middle;resizable=0;points=[];autosize=1;strokeColor=none;fillColor=none;" parent="1" vertex="1">
          <mxGeometry x="1744.02" y="685" width="40" height="30" as="geometry" />
        </mxCell>
        <mxCell id="OmKSdJS_6-39v24Q9E5N-115" style="edgeStyle=orthogonalEdgeStyle;rounded=0;orthogonalLoop=1;jettySize=auto;html=1;entryX=0.5;entryY=0;entryDx=0;entryDy=0;" parent="1" source="OmKSdJS_6-39v24Q9E5N-112" target="OmKSdJS_6-39v24Q9E5N-114" edge="1">
          <mxGeometry relative="1" as="geometry" />
        </mxCell>
        <mxCell id="OmKSdJS_6-39v24Q9E5N-119" style="edgeStyle=orthogonalEdgeStyle;rounded=0;orthogonalLoop=1;jettySize=auto;html=1;exitX=0;exitY=0.5;exitDx=0;exitDy=0;" parent="1" source="OmKSdJS_6-39v24Q9E5N-112" edge="1">
          <mxGeometry relative="1" as="geometry">
            <mxPoint x="1761.145" y="1000" as="targetPoint" />
            <Array as="points">
              <mxPoint x="1682.02" y="840" />
              <mxPoint x="1682.02" y="960" />
              <mxPoint x="1761.02" y="960" />
            </Array>
          </mxGeometry>
        </mxCell>
        <mxCell id="OmKSdJS_6-39v24Q9E5N-112" value="!allNonNegative" style="rhombus;whiteSpace=wrap;html=1;" parent="1" vertex="1">
          <mxGeometry x="1701.52" y="790" width="119.25" height="100" as="geometry" />
        </mxCell>
        <mxCell id="OmKSdJS_6-39v24Q9E5N-144" style="edgeStyle=orthogonalEdgeStyle;rounded=0;orthogonalLoop=1;jettySize=auto;html=1;entryX=0.5;entryY=0;entryDx=0;entryDy=0;" parent="1" source="OmKSdJS_6-39v24Q9E5N-114" target="OmKSdJS_6-39v24Q9E5N-141" edge="1">
          <mxGeometry relative="1" as="geometry" />
        </mxCell>
        <mxCell id="OmKSdJS_6-39v24Q9E5N-114" value="indexcolum = j" style="rounded=0;whiteSpace=wrap;html=1;" parent="1" vertex="1">
          <mxGeometry x="1867.52" y="860" width="120" height="60" as="geometry" />
        </mxCell>
        <mxCell id="OmKSdJS_6-39v24Q9E5N-170" style="edgeStyle=orthogonalEdgeStyle;rounded=0;orthogonalLoop=1;jettySize=auto;html=1;entryX=0.5;entryY=0;entryDx=0;entryDy=0;" parent="1" source="OmKSdJS_6-39v24Q9E5N-116" target="OmKSdJS_6-39v24Q9E5N-168" edge="1">
          <mxGeometry relative="1" as="geometry" />
        </mxCell>
        <mxCell id="OmKSdJS_6-39v24Q9E5N-116" value="" style="shape=loopLimit;whiteSpace=wrap;html=1;rotation=-180;" parent="1" vertex="1">
          <mxGeometry x="1710.77" y="1000" width="100" height="80" as="geometry" />
        </mxCell>
        <mxCell id="OmKSdJS_6-39v24Q9E5N-117" value="++j" style="text;html=1;align=center;verticalAlign=middle;resizable=0;points=[];autosize=1;strokeColor=none;fillColor=none;" parent="1" vertex="1">
          <mxGeometry x="1744.02" y="1025" width="40" height="30" as="geometry" />
        </mxCell>
        <mxCell id="OmKSdJS_6-39v24Q9E5N-124" style="edgeStyle=orthogonalEdgeStyle;rounded=0;orthogonalLoop=1;jettySize=auto;html=1;entryX=0.5;entryY=0;entryDx=0;entryDy=0;" parent="1" source="OmKSdJS_6-39v24Q9E5N-120" target="OmKSdJS_6-39v24Q9E5N-123" edge="1">
          <mxGeometry relative="1" as="geometry" />
        </mxCell>
        <mxCell id="OmKSdJS_6-39v24Q9E5N-162" style="edgeStyle=orthogonalEdgeStyle;rounded=0;orthogonalLoop=1;jettySize=auto;html=1;entryX=0.5;entryY=0;entryDx=0;entryDy=0;exitX=0;exitY=0.5;exitDx=0;exitDy=0;" parent="1" source="OmKSdJS_6-39v24Q9E5N-120" target="OmKSdJS_6-39v24Q9E5N-161" edge="1">
          <mxGeometry relative="1" as="geometry" />
        </mxCell>
        <mxCell id="OmKSdJS_6-39v24Q9E5N-120" value="indexcolum != -1" style="rhombus;whiteSpace=wrap;html=1;" parent="1" vertex="1">
          <mxGeometry x="2227" y="60" width="128.88" height="90" as="geometry" />
        </mxCell>
        <mxCell id="OmKSdJS_6-39v24Q9E5N-128" style="edgeStyle=orthogonalEdgeStyle;rounded=0;orthogonalLoop=1;jettySize=auto;html=1;entryX=0.5;entryY=0;entryDx=0;entryDy=0;exitX=0.5;exitY=1;exitDx=0;exitDy=0;" parent="1" source="OmKSdJS_6-39v24Q9E5N-123" target="OmKSdJS_6-39v24Q9E5N-127" edge="1">
          <mxGeometry relative="1" as="geometry">
            <Array as="points">
              <mxPoint x="2449.5" y="290" />
              <mxPoint x="2291.5" y="290" />
            </Array>
          </mxGeometry>
        </mxCell>
        <mxCell id="OmKSdJS_6-39v24Q9E5N-123" value="Вывод&lt;div&gt;indexcolum&lt;br&gt;&lt;/div&gt;" style="shape=parallelogram;perimeter=parallelogramPerimeter;whiteSpace=wrap;html=1;fixedSize=1;" parent="1" vertex="1">
          <mxGeometry x="2389.5" y="150" width="120" height="60" as="geometry" />
        </mxCell>
        <mxCell id="OmKSdJS_6-39v24Q9E5N-127" value="Конец" style="rounded=1;whiteSpace=wrap;html=1;arcSize=50;" parent="1" vertex="1">
          <mxGeometry x="2243.44" y="340" width="96" height="40" as="geometry" />
        </mxCell>
        <mxCell id="OmKSdJS_6-39v24Q9E5N-146" style="edgeStyle=orthogonalEdgeStyle;rounded=0;orthogonalLoop=1;jettySize=auto;html=1;entryX=0.5;entryY=0;entryDx=0;entryDy=0;exitX=0.5;exitY=1;exitDx=0;exitDy=0;" parent="1" source="OmKSdJS_6-39v24Q9E5N-141" target="OmKSdJS_6-39v24Q9E5N-98" edge="1">
          <mxGeometry relative="1" as="geometry">
            <Array as="points">
              <mxPoint x="1928.02" y="1036" />
              <mxPoint x="2030.02" y="1036" />
              <mxPoint x="2030.02" y="130" />
              <mxPoint x="1761.02" y="130" />
            </Array>
          </mxGeometry>
        </mxCell>
        <mxCell id="OmKSdJS_6-39v24Q9E5N-141" value="brake&lt;span style=&quot;color: rgba(0, 0, 0, 0); font-family: monospace; font-size: 0px; text-align: start; text-wrap: nowrap;&quot;&gt;%3CmxGraphModel%3E%3Croot%3E%3CmxCell%20id%3D%220%22%2F%3E%3CmxCell%20id%3D%221%22%20parent%3D%220%22%2F%3E%3CmxCell%20id%3D%222%22%20value%3D%22Brake%22%20style%3D%22strokeWidth%3D2%3Bhtml%3D1%3Bshape%3Dmxgraph.flowchart.annotation_1%3Balign%3Dleft%3BpointerEvents%3D1%3B%22%20vertex%3D%221%22%20parent%3D%221%22%3E%3CmxGeometry%20x%3D%22800%22%20y%3D%224190%22%20width%3D%2250%22%20height%3D%22100%22%20as%3D%22geometry%22%2F%3E%3C%2FmxCell%3E%3C%2Froot%3E%3C%2FmxGraphModel%3E&lt;/span&gt;" style="rounded=0;whiteSpace=wrap;html=1;" parent="1" vertex="1">
          <mxGeometry x="1867.52" y="956" width="120" height="60" as="geometry" />
        </mxCell>
        <mxCell id="OmKSdJS_6-39v24Q9E5N-145" style="edgeStyle=orthogonalEdgeStyle;rounded=0;orthogonalLoop=1;jettySize=auto;html=1;entryX=0.5;entryY=0;entryDx=0;entryDy=0;exitX=0.5;exitY=1;exitDx=0;exitDy=0;" parent="1" source="OmKSdJS_6-39v24Q9E5N-142" target="OmKSdJS_6-39v24Q9E5N-102" edge="1">
          <mxGeometry relative="1" as="geometry">
            <Array as="points">
              <mxPoint x="1933.02" y="735" />
              <mxPoint x="2030.02" y="735" />
              <mxPoint x="2030.02" y="350" />
              <mxPoint x="1761.02" y="350" />
            </Array>
          </mxGeometry>
        </mxCell>
        <mxCell id="OmKSdJS_6-39v24Q9E5N-142" value="brake&lt;span style=&quot;color: rgba(0, 0, 0, 0); font-family: monospace; font-size: 0px; text-align: start; text-wrap: nowrap;&quot;&gt;%3CmxGraphModel%3E%3Croot%3E%3CmxCell%20id%3D%220%22%2F%3E%3CmxCell%20id%3D%221%22%20parent%3D%220%22%2F%3E%3CmxCell%20id%3D%222%22%20value%3D%22Brake%22%20style%3D%22strokeWidth%3D2%3Bhtml%3D1%3Bshape%3Dmxgraph.flowchart.annotation_1%3Balign%3Dleft%3BpointerEvents%3D1%3B%22%20vertex%3D%221%22%20parent%3D%221%22%3E%3CmxGeometry%20x%3D%22800%22%20y%3D%224190%22%20width%3D%2250%22%20height%3D%22100%22%20as%3D%22geometry%22%2F%3E%3C%2FmxCell%3E%3C%2Froot%3E%3C%2FmxGraphModel%3E&lt;/span&gt;" style="rounded=0;whiteSpace=wrap;html=1;" parent="1" vertex="1">
          <mxGeometry x="1872.52" y="655" width="120" height="60" as="geometry" />
        </mxCell>
        <mxCell id="OmKSdJS_6-39v24Q9E5N-147" value="А" style="ellipse;whiteSpace=wrap;html=1;aspect=fixed;" parent="1" vertex="1">
          <mxGeometry x="357.5" y="960" width="80" height="80" as="geometry" />
        </mxCell>
        <mxCell id="OmKSdJS_6-39v24Q9E5N-150" style="edgeStyle=orthogonalEdgeStyle;rounded=0;orthogonalLoop=1;jettySize=auto;html=1;entryX=0.5;entryY=0;entryDx=0;entryDy=0;" parent="1" source="OmKSdJS_6-39v24Q9E5N-149" target="OmKSdJS_6-39v24Q9E5N-22" edge="1">
          <mxGeometry relative="1" as="geometry" />
        </mxCell>
        <mxCell id="OmKSdJS_6-39v24Q9E5N-149" value="А" style="ellipse;whiteSpace=wrap;html=1;aspect=fixed;" parent="1" vertex="1">
          <mxGeometry x="612.5" y="-80" width="80" height="80" as="geometry" />
        </mxCell>
        <mxCell id="OmKSdJS_6-39v24Q9E5N-151" value="Б" style="ellipse;whiteSpace=wrap;html=1;aspect=fixed;" parent="1" vertex="1">
          <mxGeometry x="612.5" y="1330" width="80" height="80" as="geometry" />
        </mxCell>
        <mxCell id="OmKSdJS_6-39v24Q9E5N-154" style="edgeStyle=orthogonalEdgeStyle;rounded=0;orthogonalLoop=1;jettySize=auto;html=1;entryX=0.5;entryY=0;entryDx=0;entryDy=0;" parent="1" source="OmKSdJS_6-39v24Q9E5N-153" target="OmKSdJS_6-39v24Q9E5N-62" edge="1">
          <mxGeometry relative="1" as="geometry" />
        </mxCell>
        <mxCell id="OmKSdJS_6-39v24Q9E5N-153" value="Б" style="ellipse;whiteSpace=wrap;html=1;aspect=fixed;" parent="1" vertex="1">
          <mxGeometry x="1006.9300000000001" y="-70" width="80" height="80" as="geometry" />
        </mxCell>
        <mxCell id="OmKSdJS_6-39v24Q9E5N-157" value="В" style="ellipse;whiteSpace=wrap;html=1;aspect=fixed;" parent="1" vertex="1">
          <mxGeometry x="1022.1700000000001" y="1030" width="80" height="80" as="geometry" />
        </mxCell>
        <mxCell id="OmKSdJS_6-39v24Q9E5N-160" style="edgeStyle=orthogonalEdgeStyle;rounded=0;orthogonalLoop=1;jettySize=auto;html=1;entryX=0.5;entryY=0;entryDx=0;entryDy=0;" parent="1" source="OmKSdJS_6-39v24Q9E5N-159" target="OmKSdJS_6-39v24Q9E5N-83" edge="1">
          <mxGeometry relative="1" as="geometry" />
        </mxCell>
        <mxCell id="OmKSdJS_6-39v24Q9E5N-159" value="В" style="ellipse;whiteSpace=wrap;html=1;aspect=fixed;" parent="1" vertex="1">
          <mxGeometry x="1451.88" y="-80" width="80" height="80" as="geometry" />
        </mxCell>
        <mxCell id="OmKSdJS_6-39v24Q9E5N-163" style="edgeStyle=orthogonalEdgeStyle;rounded=0;orthogonalLoop=1;jettySize=auto;html=1;entryX=0.5;entryY=0;entryDx=0;entryDy=0;exitX=0.5;exitY=1;exitDx=0;exitDy=0;" parent="1" source="OmKSdJS_6-39v24Q9E5N-161" target="OmKSdJS_6-39v24Q9E5N-127" edge="1">
          <mxGeometry relative="1" as="geometry">
            <Array as="points">
              <mxPoint x="2159.62" y="290" />
              <mxPoint x="2291.62" y="290" />
            </Array>
          </mxGeometry>
        </mxCell>
        <mxCell id="OmKSdJS_6-39v24Q9E5N-161" value="&lt;div&gt;Вывод&lt;div&gt;&quot;Нет столбцов, не содержащих отрицательных элементов.&quot;&lt;/div&gt;&lt;/div&gt;" style="shape=parallelogram;perimeter=parallelogramPerimeter;whiteSpace=wrap;html=1;fixedSize=1;" parent="1" vertex="1">
          <mxGeometry x="2087" y="170" width="140" height="80" as="geometry" />
        </mxCell>
        <mxCell id="OmKSdJS_6-39v24Q9E5N-164" value="Г" style="ellipse;whiteSpace=wrap;html=1;aspect=fixed;" parent="1" vertex="1">
          <mxGeometry x="1448.63" y="640" width="80" height="80" as="geometry" />
        </mxCell>
        <mxCell id="OmKSdJS_6-39v24Q9E5N-167" style="edgeStyle=orthogonalEdgeStyle;rounded=0;orthogonalLoop=1;jettySize=auto;html=1;entryX=0.5;entryY=0;entryDx=0;entryDy=0;" parent="1" source="OmKSdJS_6-39v24Q9E5N-166" target="OmKSdJS_6-39v24Q9E5N-96" edge="1">
          <mxGeometry relative="1" as="geometry" />
        </mxCell>
        <mxCell id="OmKSdJS_6-39v24Q9E5N-166" value="Г" style="ellipse;whiteSpace=wrap;html=1;aspect=fixed;" parent="1" vertex="1">
          <mxGeometry x="1721.14" y="-80" width="80" height="80" as="geometry" />
        </mxCell>
        <mxCell id="OmKSdJS_6-39v24Q9E5N-168" value="Д" style="ellipse;whiteSpace=wrap;html=1;aspect=fixed;" parent="1" vertex="1">
          <mxGeometry x="1720.77" y="1155" width="80" height="80" as="geometry" />
        </mxCell>
        <mxCell id="OmKSdJS_6-39v24Q9E5N-172" style="edgeStyle=orthogonalEdgeStyle;rounded=0;orthogonalLoop=1;jettySize=auto;html=1;entryX=0.5;entryY=0;entryDx=0;entryDy=0;" parent="1" source="OmKSdJS_6-39v24Q9E5N-171" target="OmKSdJS_6-39v24Q9E5N-120" edge="1">
          <mxGeometry relative="1" as="geometry" />
        </mxCell>
        <mxCell id="OmKSdJS_6-39v24Q9E5N-171" value="Д" style="ellipse;whiteSpace=wrap;html=1;aspect=fixed;" parent="1" vertex="1">
          <mxGeometry x="2251.44" y="-80" width="80" height="80" as="geometry" />
        </mxCell>
      </root>
    </mxGraphModel>
  </diagram>
</mxfile>
